<svg id="Layer_1" data-name="Layer 1" xmlns="http://www.w3.org/2000/svg" viewBox="0 0 14 15"><defs><style>.cls-1{fill:#c14c5e;}</style></defs><title>@_icon</title><path class="cls-1" d="M.13,8.26a7.67,7.67,0,0,1,7.68-8,5.73,5.73,0,0,1,6.06,6.09c0,3.17-2,4.79-3.79,4.79A1.77,1.77,0,0,1,8.13,9.75h0A2.88,2.88,0,0,1,6,11,2.28,2.28,0,0,1,3.72,8.37c0-2,1.44-4.24,3.49-4.24A1.46,1.46,0,0,1,8.59,5h0l.23-.72h1.29L9.39,8c-.3,1.21,0,1.79.89,1.79,1.1,0,2.25-1.31,2.25-3.42,0-2.69-1.53-4.89-4.87-4.89a6.38,6.38,0,0,0-6.12,6.7,4.94,4.94,0,0,0,5.23,5.3,6,6,0,0,0,2.78-.73L10,13.9a6.76,6.76,0,0,1-3.42.88A6.12,6.12,0,0,1,.13,8.26Zm7.65.44.46-2.6a1.12,1.12,0,0,0-1-.62c-1.23,0-2,1.58-2,2.76,0,1,.42,1.39,1.08,1.39C6.81,9.63,7.25,9.36,7.78,8.7Z"/></svg>