<svg id="Layer_2_copy" data-name="Layer 2 copy" xmlns="http://www.w3.org/2000/svg" viewBox="0 0 72 72"><defs><style>.cls-1{fill:#c14c5e;}.cls-2{fill:#fff;}</style></defs><title>About_button</title><path class="cls-1" d="M36,1A35,35,0,1,0,71,36,35,35,0,0,0,36,1Z"/><path class="cls-2" d="M36.09,53.75c-3.05,1.48-7.77.21-7-2.87l4.45-16.63c1.56-5.81-2.72-3.91-4.64-3.06a11.74,11.74,0,0,1,4.7-4.11c3.06-1.48,7.78-.21,7,2.87L36.15,46.57c-1.55,5.82,2.73,3.93,4.65,3.07A11.77,11.77,0,0,1,36.09,53.75Z"/><path class="cls-2" d="M43,19.39a2.83,2.83,0,1,1-2-3.47h0a2.83,2.83,0,0,1,2,3.47Z"/></svg>