<svg id="Layer_2_copy" data-name="Layer 2 copy" xmlns="http://www.w3.org/2000/svg" viewBox="0 0 72 72"><defs><style>.cls-1{fill:#c14b5f;}.cls-2{fill:#fff;stroke:#c14b5f;stroke-miterlimit:10;stroke-width:0.25px;}</style></defs><title>Contact_button</title><path class="cls-1" d="M1,36A35,35,0,1,0,36,1,35,35,0,0,0,1,36Z"/><polygon class="cls-2" points="53.23 47.32 53.23 47.33 53.5 47.56 53.5 27.79 42.49 37.67 53.23 47.32"/><path class="cls-2" d="M30.66,38.72l-11,10H52.51l-11.17-10-.74.67a6.74,6.74,0,0,1-9.21,0Z"/><path class="cls-2" d="M18.56,47.67a.7.7,0,0,1,.21-.35l10.72-9.64-11-9.89V47.72Z"/><path class="cls-2" d="M53.23,26,39.68,38.13a5.38,5.38,0,0,1-7.37,0L18.77,26a.86.86,0,0,1-.23-.89.75.75,0,0,1,.69-.54H52.77a.75.75,0,0,1,.69.54A.86.86,0,0,1,53.23,26Z"/></svg>