<svg id="Layer_1" data-name="Layer 1" xmlns="http://www.w3.org/2000/svg" viewBox="0 0 72 72"><defs><style>.cls-1{fill:#fff;stroke:#c14c5e;stroke-miterlimit:10;}.cls-2{fill:#c14c5e;}</style></defs><title>FAQ_button_hvr</title><path class="cls-1" d="M36,1A35,35,0,1,0,71,36,35,35,0,0,0,36,1Z"/><path class="cls-2" d="M39.78,26.39A4.15,4.15,0,0,0,35.93,22a3.53,3.53,0,0,0-.65,0,7.59,7.59,0,0,0-5.72,2.89L26,21.56a13.23,13.23,0,0,1,10.06-4.83C41.83,16.73,46,19.9,46,26c0,7.05-8.66,9.55-7.88,16.71H32.5C31.34,34.56,39.78,31.39,39.78,26.39ZM31.22,50.94a4.11,4.11,0,0,1,3.9-4.32h.21a4.33,4.33,0,0,1,0,8.66,4.12,4.12,0,0,1-4.12-4.12C31.21,51.08,31.22,51,31.22,50.94Z"/></svg>