<svg id="Layer_1" data-name="Layer 1" xmlns="http://www.w3.org/2000/svg" xmlns:xlink="http://www.w3.org/1999/xlink" viewBox="0 0 1200 700"><defs><style>.cls-1{fill:none;}.cls-2{clip-path:url(#clip-path);}.cls-3{opacity:0.25;}.cls-4{fill:#cecccc;}</style><clipPath id="clip-path"><rect class="cls-1" width="1200" height="700"/></clipPath></defs><title>honeycomb</title><g class="cls-2"><g class="cls-3"><path class="cls-4" d="M668.4,368.47a3.9,3.9,0,0,0,1.53.3,4,4,0,1,0,0-8.07,4.09,4.09,0,0,0-1.53.3l-27.86-48.25a4,4,0,1,0-6.46-3.73H578.36a4,4,0,1,0-6.46,3.73L544,361a4.09,4.09,0,0,0-1.53-.3,4,4,0,1,0,0,8.07,3.94,3.94,0,0,0,1.53-.3l27.86,48.25a4,4,0,1,0,6.46,3.73h55.72a4,4,0,1,0,6.46-3.73Zm-33.28,51.44a3,3,0,1,1,3,3A2.95,2.95,0,0,1,635.12,419.91Zm-60.76-3a3,3,0,1,1-3,3A3,3,0,0,1,574.36,417Zm-31.85-55.18a3,3,0,1,1-3,3A3,3,0,0,1,542.51,361.78Zm34.81-52.22a3,3,0,1,1-3-2.95A3,3,0,0,1,577.32,309.56Zm60.75,3a3,3,0,1,1,3-3A3,3,0,0,1,638.07,312.52Zm29.39,49a4,4,0,0,0,0,6.38L639.6,416.18a4,4,0,0,0-5.52,3.19H578.36a4,4,0,0,0-4-3.49,4.09,4.09,0,0,0-1.53.3L545,367.93a4,4,0,0,0,0-6.38l27.86-48.26a3.91,3.91,0,0,0,1.53.31,4.05,4.05,0,0,0,4-3.5h55.72a4,4,0,0,0,4,3.5,3.87,3.87,0,0,0,1.53-.31Zm2.47,6.14a3,3,0,1,1,3-2.95A3,3,0,0,1,669.93,367.69Z"/><path class="cls-4" d="M1253.26,255.27a4.14,4.14,0,0,0,1.54.3,4,4,0,0,0,4-3.5h55.72a4,4,0,1,0,6.46-3.73l27.86-48.25a4.09,4.09,0,0,0,1.53.3,4,4,0,1,0,0-8.07,4.09,4.09,0,0,0-1.53.3L1321,144.37a4,4,0,1,0-6.46-3.73h-55.72a4,4,0,1,0-6.46,3.73l-27.86,48.25a4.09,4.09,0,0,0-1.53-.3,4,4,0,0,0-4,3.49h-55.71a4,4,0,0,0-4-3.49,4.09,4.09,0,0,0-1.53.3l-27.86-48.25a4,4,0,1,0-6.46-3.73h-55.72a4,4,0,1,0-6.46,3.73l-27.86,48.25a4.13,4.13,0,0,0-1.53-.3,4,4,0,1,0,0,8.07,4.13,4.13,0,0,0,1.53-.3l27.86,48.25a4,4,0,1,0,6.46,3.73h55.72a4,4,0,0,0,4,3.5,4.09,4.09,0,0,0,1.53-.3l27.86,48.25a4,4,0,1,0,6.47,3.73h55.71a4,4,0,1,0,6.47-3.73ZM1220,306.71a3,3,0,1,1,3,3A3,3,0,0,1,1220,306.71Zm-60.75-3a3,3,0,1,1-3,3A3,3,0,0,1,1159.23,303.75Zm-29.39-49a4,4,0,0,0,0-6.38l13.93-24.13,13.93-24.12a4,4,0,0,0,5.53-3.19h55.71a4,4,0,0,0,5.53,3.19l27.86,48.25a4,4,0,0,0,0,6.38L1224.47,303a4,4,0,0,0-5.53,3.2h-55.71a4,4,0,0,0-5.53-3.2Zm-5.42-3.19a3,3,0,1,1,2.95,3A3,3,0,0,1,1124.42,251.53Zm-60.76-3a3,3,0,1,1-3,3A3,3,0,0,1,1063.66,248.57Zm-31.85-55.17a3,3,0,1,1-3,2.95A2.95,2.95,0,0,1,1031.81,193.4Zm34.81-52.22a3,3,0,1,1-3-3A3,3,0,0,1,1066.62,141.18Zm60.75,3a3,3,0,1,1,3-3A3,3,0,0,1,1127.37,144.14Zm29.39,49a4,4,0,0,0,0,6.38l-13.93,24.13L1128.9,247.8a3.91,3.91,0,0,0-1.53-.31,4,4,0,0,0-4,3.5h-55.72a4.05,4.05,0,0,0-4-3.5,3.91,3.91,0,0,0-1.53.31l-27.86-48.26a4,4,0,0,0,0-6.38l27.86-48.25a3.9,3.9,0,0,0,1.53.3,4,4,0,0,0,4-3.49h55.72a4,4,0,0,0,4,3.49,3.9,3.9,0,0,0,1.53-.3Zm5.42,3.19a3,3,0,1,1-3-2.95A3,3,0,0,1,1162.18,196.35Zm60.76-2.95a3,3,0,1,1-3,2.95A3,3,0,0,1,1222.94,193.4Zm34.81-52.22a3,3,0,1,1-3-3A3,3,0,0,1,1257.75,141.18Zm60.76,3a3,3,0,1,1,3-3A3,3,0,0,1,1318.51,144.14Zm31.85,55.17a3,3,0,1,1,3-3A3,3,0,0,1,1350.36,199.31ZM1320,247.8a3.91,3.91,0,0,0-1.53-.31,4,4,0,0,0-4,3.5h-55.72a4,4,0,0,0-4-3.5,4,4,0,0,0-1.54.31l-27.85-48.26a4,4,0,0,0,0-6.38l27.85-48.25a4,4,0,0,0,1.54.3,4,4,0,0,0,4-3.49h55.72a4,4,0,0,0,4,3.49,3.9,3.9,0,0,0,1.53-.3l27.86,48.25a4,4,0,0,0,0,6.38Zm-4.49,3.73a3,3,0,1,1,3,3A3,3,0,0,1,1315.55,251.53Zm-60.75,3a3,3,0,1,1,3-3A3,3,0,0,1,1254.8,254.49Z"/><path class="cls-4" d="M282.18,481a3.87,3.87,0,0,0,1.53.31,4,4,0,0,0,4-3.5h55.72a4.05,4.05,0,0,0,4,3.5A3.91,3.91,0,0,0,349,481l27.86,48.25a4,4,0,1,0,6.46,3.74H439a4,4,0,1,0,6.46-3.74L473.31,481a3.91,3.91,0,0,0,1.53.31,4,4,0,1,0,0-8.08,3.91,3.91,0,0,0-1.53.31l-27.86-48.26a4,4,0,1,0-6.46-3.73H383.27a4,4,0,0,0-4-3.5,4,4,0,0,0-1.53.31l-27.86-48.25a4,4,0,1,0-6.46-3.73H287.7a4,4,0,1,0-6.46,3.73l-27.86,48.25a3.91,3.91,0,0,0-1.53-.31,4.05,4.05,0,0,0-4,3.5H192.14a4,4,0,1,0-6.47,3.73l-27.86,48.26a3.87,3.87,0,0,0-1.53-.31,4,4,0,0,0,0,8.08,3.87,3.87,0,0,0,1.53-.31l27.86,48.25a4,4,0,1,0,6.47,3.74h55.71a4,4,0,1,0,6.47-3.74Zm-33.29,51.44a3,3,0,1,1,3,3A3,3,0,0,1,248.89,532.42Zm-60.75-2.95a3,3,0,1,1-3,2.95A3,3,0,0,1,188.14,529.47Zm-31.86-55.18a3,3,0,1,1-2.95,3A3,3,0,0,1,156.28,474.29Zm30.33-48.48a4.09,4.09,0,0,0,1.53.3,4,4,0,0,0,4-3.5h55.71a4,4,0,0,0,4,3.5,4.09,4.09,0,0,0,1.53-.3l8.67,15,19.19,33.23a4,4,0,0,0,0,6.38l-27.86,48.25a4.09,4.09,0,0,0-1.53-.3,4,4,0,0,0-4,3.49H192.14a4,4,0,0,0-4-3.49,4.09,4.09,0,0,0-1.53.3l-27.86-48.25a4,4,0,0,0,0-6.38Zm4.48-3.74a3,3,0,1,1-3-2.95A3,3,0,0,1,191.09,422.07Zm60.76-2.95a3,3,0,1,1-3,2.95A3,3,0,0,1,251.85,419.12Zm34.81-52.22a3,3,0,1,1-3-3A2.95,2.95,0,0,1,286.66,366.9Zm60.76,3a3,3,0,1,1,2.95-3A3,3,0,0,1,347.42,369.85Zm29.39,49a4,4,0,0,0,0,6.38l-8.67,15L349,473.52a3.91,3.91,0,0,0-1.53-.31,4.05,4.05,0,0,0-4,3.5H287.7a4,4,0,0,0-4-3.5,3.87,3.87,0,0,0-1.53.31l-8.68-15-19.18-33.24a4,4,0,0,0,0-6.38l27.85-48.25a4.14,4.14,0,0,0,1.54.3,4,4,0,0,0,4-3.49h55.72a4,4,0,0,0,4,3.49,4.09,4.09,0,0,0,1.53-.3Zm5.42,3.19a3,3,0,1,1-3-2.95A3,3,0,0,1,382.23,422.07ZM443,425a3,3,0,1,1,2.95-3A3,3,0,0,1,443,425Zm31.85,55.17a3,3,0,1,1,3-2.95A3,3,0,0,1,474.84,480.2ZM440,532.42a3,3,0,1,1,3,3A3,3,0,0,1,440,532.42Zm-60.76-2.95a3,3,0,1,1-2.95,2.95A3,3,0,0,1,379.27,529.47Zm-29.39-49a4,4,0,0,0,0-6.38l8.68-15,19.18-33.23a4.13,4.13,0,0,0,1.53.3,4,4,0,0,0,4-3.5H439a4,4,0,0,0,4,3.5,4.09,4.09,0,0,0,1.53-.3l27.86,48.25a4,4,0,0,0,0,6.38l-27.86,48.25a4.09,4.09,0,0,0-1.53-.3,4,4,0,0,0-4,3.49H383.27a4,4,0,0,0-4-3.49,4.13,4.13,0,0,0-1.53.3Zm-5.42-3.19a3,3,0,1,1,3,2.95A3,3,0,0,1,344.46,477.25Zm-60.75,2.95a3,3,0,1,1,3-2.95A3,3,0,0,1,283.71,480.2Z"/><path class="cls-4" d="M1031.32,425.57a4,4,0,0,0,4,4,3.91,3.91,0,0,0,1.53-.31l27.86,48.26a4,4,0,1,0,6.46,3.73h55.72a4,4,0,1,0,6.46-3.73l27.86-48.26a3.91,3.91,0,0,0,1.53.31,4,4,0,0,0,0-8.08,3.91,3.91,0,0,0-1.53.31l-27.86-48.26a4,4,0,1,0-6.46-3.73h-55.72a4,4,0,1,0-6.46,3.73l-27.86,48.26a3.91,3.91,0,0,0-1.53-.31A4,4,0,0,0,1031.32,425.57Zm38.85-55.18a3,3,0,1,1-3-2.95A3,3,0,0,1,1070.17,370.39Zm60.76,3a3,3,0,1,1,3-3A3,3,0,0,1,1130.93,373.35Zm31.85,55.18a3,3,0,1,1,3-3A3,3,0,0,1,1162.78,428.53ZM1128,480.75a3,3,0,1,1,3,2.95A3,3,0,0,1,1128,480.75Zm-60.76-3a3,3,0,1,1-3,3A3,3,0,0,1,1067.21,477.79Zm-29.39-49a4,4,0,0,0,0-6.38l27.86-48.25a4.13,4.13,0,0,0,1.53.3,4,4,0,0,0,4-3.49h55.72a4,4,0,0,0,4,3.49,4.09,4.09,0,0,0,1.53-.3l27.86,48.25a4,4,0,0,0,0,6.38L1132.46,477a4.09,4.09,0,0,0-1.53-.3,4,4,0,0,0-4,3.5h-55.72a4,4,0,0,0-4-3.5,4.13,4.13,0,0,0-1.53.3Zm-5.42-3.19a3,3,0,1,1,3,3A3,3,0,0,1,1032.4,425.57Z"/><path class="cls-4" d="M731.54,363.4a4,4,0,0,0,4,4,3.91,3.91,0,0,0,1.53-.31L765,415.39a4,4,0,1,0,6.46,3.73h55.72a4,4,0,0,0,4,3.49,4.13,4.13,0,0,0,1.53-.3l27.86,48.25a4,4,0,1,0,6.46,3.73h55.72a4,4,0,1,0,6.46-3.73L957,422.31a4.09,4.09,0,0,0,1.53.3,4,4,0,0,0,4-3.49h55.71a4,4,0,1,0,6.47-3.73l27.85-48.26a4,4,0,0,0,1.54.31,4,4,0,0,0,0-8.08,4,4,0,0,0-1.54.31l-27.85-48.25a4,4,0,1,0-6.47-3.74H962.57a4,4,0,1,0-6.47,3.73l-27.85,48.26a4,4,0,0,0-5.53,3.19H867a4.05,4.05,0,0,0-4-3.5,3.91,3.91,0,0,0-1.53.31l-27.86-48.25a4,4,0,1,0-6.46-3.74H771.43a4,4,0,1,0-6.46,3.74l-27.86,48.25a3.91,3.91,0,0,0-1.53-.31A4,4,0,0,0,731.54,363.4Zm38.85-55.18a3,3,0,1,1-3-3A3,3,0,0,1,770.39,308.22Zm60.76,3a3,3,0,1,1,3-3A3,3,0,0,1,831.15,311.18ZM866,363.4a3,3,0,1,1-3-3A3,3,0,0,1,866,363.4Zm60.75-3a3,3,0,1,1-3,3A3,3,0,0,1,926.71,360.44Zm34.82-52.22a3,3,0,1,1-3-3A3,3,0,0,1,961.53,308.22Zm60.75,3a3,3,0,1,1,3-3A3,3,0,0,1,1022.28,311.18Zm31.86,55.18a3,3,0,1,1,2.95-3A3,3,0,0,1,1054.14,366.36Zm-30.33,48.48a4,4,0,0,0-5.53,3.2H962.57a4,4,0,0,0-5.53-3.2l-27.86-48.25a4,4,0,0,0,0-6.38L957,312a4.09,4.09,0,0,0,1.53.3,4,4,0,0,0,4-3.49h55.71a4,4,0,0,0,4,3.49,4.09,4.09,0,0,0,1.53-.3l27.86,48.25a4,4,0,0,0,0,6.38Zm-4.49,3.74a3,3,0,1,1,3,2.95A3,3,0,0,1,1019.32,418.58Zm-60.75,2.95a3,3,0,1,1,3-2.95A3,3,0,0,1,958.57,421.53Zm-34.81,52.22a3,3,0,1,1,3,3A2.95,2.95,0,0,1,923.76,473.75ZM863,470.8a3,3,0,1,1-3,2.95A3,3,0,0,1,863,470.8Zm-29.39-49a4,4,0,0,0,0-6.38l8.67-15,19.19-33.23a3.91,3.91,0,0,0,1.53.31,4.05,4.05,0,0,0,4-3.5h55.72a4,4,0,0,0,5.53,3.19l27.85,48.26a4,4,0,0,0,0,6.38L928.25,470a4,4,0,0,0-5.53,3.19H867a4.05,4.05,0,0,0-4-3.5,3.91,3.91,0,0,0-1.53.31Zm-5.42-3.19a3,3,0,1,1,3,2.95A3,3,0,0,1,828.19,418.58Zm-60.76-3a3,3,0,1,1-2.95,3A3,3,0,0,1,767.43,415.62Zm-29.39-49a4,4,0,0,0,0-6.38L765.9,312a4.13,4.13,0,0,0,1.53.3,4,4,0,0,0,4-3.49h55.72a4,4,0,0,0,4,3.49,4.13,4.13,0,0,0,1.53-.3l27.86,48.25a4,4,0,0,0,0,6.38l-8.68,15-19.18,33.23a4.13,4.13,0,0,0-1.53-.3,4,4,0,0,0-4,3.5H771.43a4,4,0,0,0-4-3.5,4.13,4.13,0,0,0-1.53.3Zm-5.42-3.19a3,3,0,1,1,3,3A3,3,0,0,1,732.62,363.4Z"/><path class="cls-4" d="M852.68,518.78a4,4,0,0,0,4,4,4.09,4.09,0,0,0,1.53-.3l15.07,26.1a4,4,0,1,0,6.47,3.73h30.14a4,4,0,1,0,6.46-3.73l15.07-26.1a4.09,4.09,0,0,0,1.53.3,4,4,0,1,0,0-8.07,4.09,4.09,0,0,0-1.53.3L916.39,489a4,4,0,1,0-6.46-3.73H879.79a4,4,0,1,0-6.47,3.73l-15.07,26.1a4.09,4.09,0,0,0-1.53-.3A4,4,0,0,0,852.68,518.78Zm26.07-33a3,3,0,1,1-3-3A3,3,0,0,1,878.75,485.76Zm35.18,2.95a3,3,0,1,1,3-2.95A3,3,0,0,1,913.93,488.71Zm19.06,33a3,3,0,1,1,3-3A3,3,0,0,1,933,521.74Zm-22,30.07a3,3,0,1,1,3,3A3,3,0,0,1,911,551.81Zm-35.18-3a3,3,0,1,1-3,3A3,3,0,0,1,875.79,548.85ZM859.19,522a4,4,0,0,0,0-6.38l15.07-26.11a3.91,3.91,0,0,0,1.53.31,4.05,4.05,0,0,0,4-3.5h30.14a4,4,0,0,0,4,3.5,4,4,0,0,0,1.53-.31l15.07,26.11a4,4,0,0,0,0,6.37l-15.07,26.11a4,4,0,0,0-1.53-.31,4,4,0,0,0-4,3.5H879.79a4.05,4.05,0,0,0-4-3.5,3.91,3.91,0,0,0-1.53.31Zm-5.43-3.2a3,3,0,1,1,3,3A3,3,0,0,1,853.76,518.78Z"/><path class="cls-4" d="M1059.16,310.16l15.08,26.1a4,4,0,1,0,6.46,3.73h30.14a4,4,0,1,0,6.46-3.73l15.07-26.1a4,4,0,0,0,1.54.3,4,4,0,0,0,0-8.07,4.14,4.14,0,0,0-1.54.3l-15.07-26.1a4,4,0,1,0-6.46-3.73H1080.7a4,4,0,1,0-6.46,3.73l-15.08,26.1a4,4,0,1,0-1.53,7.77A3.87,3.87,0,0,0,1059.16,310.16Zm-1.53-6.69a3,3,0,1,1-3,2.95A3,3,0,0,1,1057.63,303.47Zm22-30.07a3,3,0,1,1-3-3A3,3,0,0,1,1079.66,273.4Zm35.18,3a3,3,0,1,1,3-3A3,3,0,0,1,1114.84,276.36Zm19.07,33a3,3,0,1,1,2.95-3A3,3,0,0,1,1133.91,309.39Zm-22,30.06a3,3,0,1,1,3,3A3,3,0,0,1,1111.88,339.45Zm-35.18-2.95a3,3,0,1,1-3,2.95A3,3,0,0,1,1076.7,336.5Zm-16.6-26.88a4,4,0,0,0,0-6.38l15.07-26.11a3.91,3.91,0,0,0,1.53.31,4.05,4.05,0,0,0,4-3.5h30.14a4.05,4.05,0,0,0,4,3.5,3.91,3.91,0,0,0,1.53-.31l15.07,26.11a4,4,0,0,0,0,6.38l-15.07,26.1a3.9,3.9,0,0,0-1.53-.3,4,4,0,0,0-4,3.49H1080.7a4,4,0,0,0-4-3.49,3.9,3.9,0,0,0-1.53.3Z"/><path class="cls-4" d="M1038.12,47.31a4,4,0,0,0-4-4,4.13,4.13,0,0,0-1.53.3l-15.07-26.1a4,4,0,1,0-6.46-3.73H980.88a4,4,0,1,0-6.47,3.73l-15.07,26.1a4.09,4.09,0,0,0-1.53-.3,4,4,0,1,0,0,8.07,4.09,4.09,0,0,0,1.53-.3l15.07,26.11a4,4,0,1,0,6.47,3.72H1011a4,4,0,1,0,6.46-3.72L1032.55,51a4.13,4.13,0,0,0,1.53.3A4,4,0,0,0,1038.12,47.31Zm-26.06,33a3,3,0,1,1,3,3A3,3,0,0,1,1012.06,80.34Zm-35.18-3a3,3,0,1,1-3,3A3,3,0,0,1,976.88,77.38Zm-19.07-33a3,3,0,1,1-3,3A3,3,0,0,1,957.81,44.35Zm22-30.08a3,3,0,1,1-3-3A3,3,0,0,1,979.84,14.27Zm35.18,3a3,3,0,1,1,3-3A3,3,0,0,1,1015,17.23Zm16.6,26.89a4,4,0,0,0,0,6.38l-15.07,26.1a4.13,4.13,0,0,0-1.53-.3,4,4,0,0,0-4,3.49H980.88a4,4,0,0,0-4-3.49,4.09,4.09,0,0,0-1.53.3L960.28,50.5a4,4,0,0,0,0-6.38L975.35,18a3.91,3.91,0,0,0,1.53.31,4.05,4.05,0,0,0,4-3.5H1011a4,4,0,0,0,4,3.5,4,4,0,0,0,1.53-.31Zm5.42,3.19a3,3,0,1,1-3-3A3,3,0,0,1,1037,47.31Z"/><path class="cls-4" d="M1150,477.86a4,4,0,0,0,4,4,4.09,4.09,0,0,0,1.53-.3l15.07,26.1a4,4,0,1,0,6.47,3.73h30.14a4,4,0,1,0,6.46-3.73l15.07-26.1a4.13,4.13,0,0,0,1.53.3,4,4,0,1,0,0-8.07,4.13,4.13,0,0,0-1.53.3L1213.69,448a4,4,0,1,0-6.46-3.73h-30.14a4,4,0,1,0-6.47,3.73l-15.07,26.1a4.09,4.09,0,0,0-1.53-.3A4,4,0,0,0,1150,477.86Zm26.07-33a3,3,0,1,1-3-3A3,3,0,0,1,1176.05,444.84Zm35.18,3a3,3,0,1,1,3-3A3,3,0,0,1,1211.23,447.79Zm19.06,33a3,3,0,1,1,3-3A3,3,0,0,1,1230.29,480.82Zm-22,30.07a3,3,0,1,1,3,3A3,3,0,0,1,1208.27,510.89Zm-35.18-3a3,3,0,1,1-3,3A3,3,0,0,1,1173.09,507.93Zm-16.6-26.88a4,4,0,0,0,0-6.38l15.07-26.1a4.09,4.09,0,0,0,1.53.3,4,4,0,0,0,4-3.49h30.14a4,4,0,0,0,4,3.49,4.13,4.13,0,0,0,1.53-.3l15.07,26.1a4,4,0,0,0,0,6.38l-15.07,26.11a3.91,3.91,0,0,0-1.53-.31,4,4,0,0,0-4,3.5h-30.14a4.05,4.05,0,0,0-4-3.5,3.91,3.91,0,0,0-1.53.31Zm-5.43-3.19a3,3,0,1,1,3,3A3,3,0,0,1,1151.06,477.86Z"/><path class="cls-4" d="M725.66,186.05a4,4,0,0,0-8-.54H687.49a4,4,0,1,0-6.47,3.73L666,215.34a4.09,4.09,0,0,0-1.53-.3,4,4,0,1,0,0,8.07,4.09,4.09,0,0,0,1.53-.3L681,248.91a4,4,0,1,0,6.47,3.73h30.14a4,4,0,1,0,6.46-3.73l15.07-26.1a4.09,4.09,0,0,0,1.53.3,4,4,0,1,0,0-8.07,4.09,4.09,0,0,0-1.53.3l-15.07-26.1A4,4,0,0,0,725.66,186.05Zm15,36a3,3,0,1,1,3-2.95A2.95,2.95,0,0,1,740.69,222Zm-22,30.07a3,3,0,1,1,3,3A3,3,0,0,1,718.67,252.1Zm-35.18-2.95a3,3,0,1,1-3,2.95A2.95,2.95,0,0,1,683.49,249.15Zm-19.07-33a3,3,0,1,1-3,3A3,3,0,0,1,664.42,216.12ZM682,189.78a3.91,3.91,0,0,0,1.53.31,4.05,4.05,0,0,0,4-3.5h30.14a4,4,0,0,0,4,3.5,4,4,0,0,0,1.53-.31l15.07,26.11a4,4,0,0,0,0,6.38l-15.07,26.1a4.13,4.13,0,0,0-1.53-.3,4,4,0,0,0-4,3.49H687.49a4,4,0,0,0-4-3.49,4.09,4.09,0,0,0-1.53.3l-15.08-26.1a4,4,0,0,0,0-6.38Zm4.48-3.73a3,3,0,1,1-3-3A2.95,2.95,0,0,1,686.44,186.05Zm38.14,0a3,3,0,1,1-3-3A3,3,0,0,1,724.58,186.05Z"/><path class="cls-4" d="M262.17,364.74a4,4,0,0,0-4-4,4.09,4.09,0,0,0-1.53.3l-15.07-26.1a4,4,0,1,0-6.46-3.73H204.92a4,4,0,1,0-6.46,3.73L183.39,361a4.09,4.09,0,0,0-1.53-.3,4,4,0,1,0,0,8.07,3.9,3.9,0,0,0,1.53-.3l15.07,26.1a4,4,0,1,0,6.46,3.74h30.15a4,4,0,1,0,6.46-3.74l15.07-26.1a3.9,3.9,0,0,0,1.53.3A4,4,0,0,0,262.17,364.74Zm-26.06,33a3,3,0,1,1,2.95,3A2.95,2.95,0,0,1,236.11,397.76Zm-35.18-2.95a3,3,0,1,1-3,2.95A2.95,2.95,0,0,1,200.93,394.81Zm-19.07-33a3,3,0,1,1-3,3A3,3,0,0,1,181.86,361.78Zm22-30.07a3,3,0,1,1-2.95-3A3,3,0,0,1,203.88,331.71Zm35.18,3a3,3,0,1,1,3-3A3,3,0,0,1,239.06,334.67Zm16.61,26.88a4,4,0,0,0,0,6.38L240.59,394a4,4,0,0,0-5.52,3.19H204.92a4,4,0,0,0-4-3.49,4.14,4.14,0,0,0-1.54.3l-15.07-26.1a4,4,0,0,0,0-6.38l15.08-26.11a3.87,3.87,0,0,0,1.53.31,4,4,0,0,0,4-3.5h30.15a4,4,0,0,0,4,3.5,3.87,3.87,0,0,0,1.53-.31Zm5.42,3.19a3,3,0,1,1-3-3A3,3,0,0,1,261.09,364.74Z"/><path class="cls-4" d="M564,473a4,4,0,0,0,4,4,4.09,4.09,0,0,0,1.53-.3l15.07,26.1a4,4,0,1,0,6.47,3.73h30.14a4,4,0,1,0,6.46-3.73l15.07-26.1a4.13,4.13,0,0,0,1.53.3,4,4,0,1,0,0-8.07,3.94,3.94,0,0,0-1.53.3l-15.07-26.1a4,4,0,1,0-6.46-3.73H591.15a4,4,0,1,0-6.47,3.73l-15.07,26.1a3.9,3.9,0,0,0-1.53-.3A4,4,0,0,0,564,473Zm26.07-33a3,3,0,1,1-3-2.95A3,3,0,0,1,590.11,440Zm35.18,3a3,3,0,1,1,3-3A3,3,0,0,1,625.29,443Zm19.06,33a3,3,0,1,1,3-3A3,3,0,0,1,644.35,476Zm-22,30.07a3,3,0,1,1,3,3A3,3,0,0,1,622.33,506.06Zm-35.18-3a3,3,0,1,1-3,3A3,3,0,0,1,587.15,503.1Zm-16.6-26.88a4,4,0,0,0,0-6.38l15.07-26.1a3.9,3.9,0,0,0,1.53.3,4,4,0,0,0,4-3.5h30.14a4,4,0,0,0,4,3.5,3.9,3.9,0,0,0,1.53-.3l15.07,26.1a4,4,0,0,0,0,6.38l-15.07,26.11a3.91,3.91,0,0,0-1.53-.31,4,4,0,0,0-4,3.5H591.15a4.05,4.05,0,0,0-4-3.5,3.91,3.91,0,0,0-1.53.31ZM565.13,473a3,3,0,1,1,3,3A2.95,2.95,0,0,1,565.13,473Z"/><path class="cls-4" d="M551.8,311.64a4,4,0,0,0-4-4,4.09,4.09,0,0,0-1.53.3l-15.08-26.1a4,4,0,1,0-6.46-3.73H494.55a4,4,0,1,0-6.46,3.73L473,307.91a4.14,4.14,0,0,0-1.54-.3,4,4,0,0,0,0,8.07,4.14,4.14,0,0,0,1.54-.3l15.07,26.1a4,4,0,1,0,6.46,3.73h30.14a4,4,0,1,0,6.46-3.73l15.08-26.1a4.09,4.09,0,0,0,1.53.3A4,4,0,0,0,551.8,311.64Zm-26.07,33a3,3,0,1,1,3,3A3,3,0,0,1,525.73,344.67Zm-35.18-3a3,3,0,1,1-2.95,3A3,3,0,0,1,490.55,341.71Zm-19.07-33a3,3,0,1,1-3,2.95A3,3,0,0,1,471.48,308.69Zm22-30.07a3,3,0,1,1-3-3A3,3,0,0,1,493.51,278.62Zm35.18,2.95a3,3,0,1,1,3-2.95A3,3,0,0,1,528.69,281.57Zm16.6,26.88a4,4,0,0,0,0,6.38l-15.07,26.11a3.9,3.9,0,0,0-1.53-.3,4,4,0,0,0-4,3.49H494.55a4,4,0,0,0-4-3.49,3.9,3.9,0,0,0-1.53.3L474,314.84a4,4,0,0,0,0-6.39L489,282.35a4.09,4.09,0,0,0,1.53.3,4,4,0,0,0,4-3.49h30.14a4,4,0,0,0,4,3.49,4.09,4.09,0,0,0,1.53-.3Zm5.42,3.19a3,3,0,1,1-3-2.95A3,3,0,0,1,550.71,311.64Z"/><path class="cls-4" d="M170.33,423.79a4,4,0,0,0-4-4,4.14,4.14,0,0,0-1.54.3L149.69,394a4,4,0,1,0-6.46-3.73H113.09a4,4,0,1,0-6.46,3.73l-15.07,26.1a4.18,4.18,0,0,0-1.54-.3,4,4,0,0,0,0,8.07,4.18,4.18,0,0,0,1.54-.3l15.07,26.1a4,4,0,1,0,6.46,3.73h30.14a4,4,0,1,0,6.46-3.73l15.07-26.1a4.14,4.14,0,0,0,1.54.3A4,4,0,0,0,170.33,423.79Zm-26.06,33a3,3,0,1,1,3,3A3,3,0,0,1,144.27,456.81Zm-35.18-2.95a3,3,0,1,1-3,2.95A3,3,0,0,1,109.09,453.86ZM90,420.83a3,3,0,1,1-3,3A3,3,0,0,1,90,420.83Zm22-30.07a3,3,0,1,1-3-3A3,3,0,0,1,112.05,390.76Zm35.18,3a3,3,0,1,1,3-3A3,3,0,0,1,147.23,393.72Zm16.6,26.88a4,4,0,0,0,0,6.38l-15.07,26.1a4.09,4.09,0,0,0-1.53-.3,4,4,0,0,0-4,3.49H113.09a4,4,0,0,0-4-3.49,4.09,4.09,0,0,0-1.53.3L92.49,427a4,4,0,0,0,0-6.38l15.07-26.11a3.91,3.91,0,0,0,1.53.31,4,4,0,0,0,4-3.5h30.14a4.05,4.05,0,0,0,4,3.5,3.91,3.91,0,0,0,1.53-.31Zm5.42,3.19a3,3,0,1,1-2.95-3A2.95,2.95,0,0,1,169.25,423.79Z"/><path class="cls-4" d="M369,583.15a4,4,0,0,0,4,4,3.87,3.87,0,0,0,1.53-.3L389.6,613a4,4,0,1,0,6.46,3.73H426.2a4,4,0,1,0,6.46-3.73l15.07-26.1a4,4,0,0,0,1.54.3,4,4,0,0,0,0-8.07,4,4,0,0,0-1.54.31l-15.07-26.11a4,4,0,1,0-6.46-3.73H396.06a4,4,0,1,0-6.46,3.73l-15.08,26.11a3.87,3.87,0,0,0-1.53-.31A4,4,0,0,0,369,583.15Zm26.06-33a3,3,0,1,1-3-3A3,3,0,0,1,395,550.12Zm35.18,3a3,3,0,1,1,2.95-3A3,3,0,0,1,430.2,553.08Zm19.07,33a3,3,0,1,1,3-3A3,3,0,0,1,449.27,586.1Zm-22,30.07a3,3,0,1,1,3,3A3,3,0,0,1,427.24,616.17Zm-35.18-2.95a3,3,0,1,1-3,2.95A3,3,0,0,1,392.06,613.22Zm-16.6-26.88a4,4,0,0,0,0-6.38l15.07-26.11a3.91,3.91,0,0,0,1.53.31,4.05,4.05,0,0,0,4-3.5H426.2a4.05,4.05,0,0,0,4,3.5,3.91,3.91,0,0,0,1.53-.31L446.8,580a4,4,0,0,0,0,6.38l-15.07,26.1a4.09,4.09,0,0,0-1.53-.3,4,4,0,0,0-4,3.49H396.06a4,4,0,0,0-4-3.49,4.09,4.09,0,0,0-1.53.3ZM370,583.15a3,3,0,1,1,2.95,3A3,3,0,0,1,370,583.15Z"/><path class="cls-4" d="M-63,576.3a4,4,0,0,0,4,4,4.05,4.05,0,0,0,4-3.5h30.14a4,4,0,0,0,4,3.5,4,4,0,0,0,4-4,4,4,0,0,0-1.57-3.19L-3.34,547a4.13,4.13,0,0,0,1.53.3,4,4,0,0,0,4-4,4.05,4.05,0,0,0-4-4,4,4,0,0,0-1.53.31l-15.07-26.1a4,4,0,0,0,1.57-3.19,4,4,0,0,0-4-4,4,4,0,0,0-4,3.5H-55a4.05,4.05,0,0,0-4-3.5,4,4,0,0,0-4,4,4.05,4.05,0,0,0,1.57,3.19l-15.07,26.1a3.91,3.91,0,0,0-1.53-.31,4.05,4.05,0,0,0-4,4,4,4,0,0,0,4,4,4.09,4.09,0,0,0,1.53-.3l15.07,26.1A4,4,0,0,0-63,576.3Zm-15-36a3,3,0,0,1,3,3,3,3,0,0,1-3,3,3,3,0,0,1-3-3A3,3,0,0,1-78.08,540.32Zm22-30.07a3,3,0,0,1-3,3,3,3,0,0,1-3-3,3,3,0,0,1,3-3A3,3,0,0,1-56,510.25Zm35.18,3a3,3,0,0,1-3-3,3,3,0,0,1,3-3,3,3,0,0,1,2.95,3A3,3,0,0,1-20.87,513.2Zm19.06,33a3,3,0,0,1-2.95-3,3,3,0,0,1,2.95-3,3,3,0,0,1,3,3A3,3,0,0,1-1.81,546.23Zm-17.53,26.34a3.91,3.91,0,0,0-1.53-.31,4,4,0,0,0-4,3.5H-55a4.05,4.05,0,0,0-4-3.5,3.91,3.91,0,0,0-1.53.31l-15.07-26.11A4,4,0,0,0-74,543.28a4.06,4.06,0,0,0-1.57-3.2L-60.54,514a3.9,3.9,0,0,0,1.53.3,4,4,0,0,0,4-3.49h30.14a4,4,0,0,0,4,3.49,3.9,3.9,0,0,0,1.53-.3l15.07,26.1a4,4,0,0,0-1.57,3.2,4,4,0,0,0,1.57,3.18Zm-4.49,3.73a3,3,0,0,1,3-3,3,3,0,0,1,2.95,3,3,3,0,0,1-2.95,3A3,3,0,0,1-23.83,576.3Zm-38.14,0a3,3,0,0,1,3-3,3,3,0,0,1,3,3,3,3,0,0,1-3,3A3,3,0,0,1-62,576.3Z"/><path class="cls-4" d="M673.42,351.7a4,4,0,0,0,8,.54h42.21a4,4,0,1,0,6.46-3.73L751.22,312a4.14,4.14,0,0,0,1.54.3,4,4,0,0,0,0-8.07,4.14,4.14,0,0,0-1.54.3l-21.1-36.55a4,4,0,1,0-6.46-3.73H681.45a4,4,0,1,0-6.46,3.73l-21.1,36.55a4.14,4.14,0,0,0-1.54-.3,4,4,0,0,0,0,8.07,4.14,4.14,0,0,0,1.54-.3L675,348.51A4,4,0,0,0,673.42,351.7Zm-21.07-46.43a3,3,0,1,1-3,3A3,3,0,0,1,652.35,305.27Zm28.06-40.52a3,3,0,1,1-3-3A3,3,0,0,1,680.41,264.75Zm47.25,3a3,3,0,1,1,3-3A3,3,0,0,1,727.66,267.71Zm25.1,43.47a3,3,0,1,1,3-3A3,3,0,0,1,752.76,311.18ZM729.19,348a3.91,3.91,0,0,0-1.53-.31,4,4,0,0,0-4,3.5H681.45a4,4,0,0,0-4-3.5,4,4,0,0,0-1.53.31l-21.1-36.56a4,4,0,0,0,0-6.37l21.1-36.56a4,4,0,0,0,1.53.31,4,4,0,0,0,4-3.5h42.21a4,4,0,0,0,4,3.5,3.91,3.91,0,0,0,1.53-.31L750.29,305a4,4,0,0,0,0,6.38Zm-4.49,3.73a3,3,0,1,1,3,3A3,3,0,0,1,724.7,351.7Zm-50.2,0a3,3,0,1,1,3,3A3,3,0,0,1,674.5,351.7Z"/><path class="cls-4" d="M480.48,464.38a4,4,0,0,0,8,.54h42.21a4,4,0,1,0,6.46-3.73l21.1-36.55a4.09,4.09,0,0,0,1.53.3,4,4,0,1,0,0-8.07,4.09,4.09,0,0,0-1.53.3l-21.1-36.55a4,4,0,1,0-6.46-3.73H488.52a4,4,0,1,0-6.47,3.73L461,417.17a4.09,4.09,0,0,0-1.53-.3,4,4,0,1,0,0,8.07,4.09,4.09,0,0,0,1.53-.3l21.1,36.55A4,4,0,0,0,480.48,464.38ZM459.42,418a3,3,0,1,1-3,2.95A3,3,0,0,1,459.42,418Zm28.06-40.52a3,3,0,1,1-3-3A3,3,0,0,1,487.48,377.43Zm47.24,3a3,3,0,1,1,3-3A3,3,0,0,1,534.72,380.39Zm25.1,43.47a3,3,0,1,1,3-3A3,3,0,0,1,559.82,423.86Zm-23.57,36.79a3.91,3.91,0,0,0-1.53-.31,4,4,0,0,0-4,3.5H488.52a4.05,4.05,0,0,0-4-3.5,3.91,3.91,0,0,0-1.53.31l-21.1-36.56a4,4,0,0,0,0-6.38L483,381.16a3.91,3.91,0,0,0,1.53.31,4.05,4.05,0,0,0,4-3.5h42.21a4,4,0,0,0,4,3.5,3.91,3.91,0,0,0,1.53-.31l21.11,36.55a4,4,0,0,0,0,6.38Zm-4.48,3.73a3,3,0,1,1,3,3A3,3,0,0,1,531.77,464.38Zm-50.21,0a3,3,0,1,1,3,3A3,3,0,0,1,481.56,464.38Z"/><path class="cls-4" d="M924,241.7a4,4,0,0,0-8-.54H873.75a4,4,0,1,0-6.46,3.73l-21.1,36.55a4.14,4.14,0,0,0-1.54-.3,4,4,0,0,0,0,8.08,4,4,0,0,0,1.54-.31l21.1,36.55a4,4,0,1,0,6.46,3.74H916a4,4,0,1,0,6.46-3.74l21.11-36.55a3.91,3.91,0,0,0,1.53.31,4,4,0,1,0,0-8.08,4.09,4.09,0,0,0-1.53.3l-21.11-36.55A4,4,0,0,0,924,241.7Zm21.07,46.44a3,3,0,1,1,3-3A3,3,0,0,1,945.06,288.14ZM917,328.65a3,3,0,1,1,3,3A3,3,0,0,1,917,328.65Zm-47.24-2.95a3,3,0,1,1-3,2.95A2.95,2.95,0,0,1,869.76,325.7Zm-25.11-43.48a3,3,0,1,1-2.95,3A3,3,0,0,1,844.65,282.22Zm23.57-36.78a4.14,4.14,0,0,0,1.54.3,4,4,0,0,0,4-3.5H916a4,4,0,0,0,5.53,3.2L942.59,282a4,4,0,0,0,0,6.38l-21.1,36.55a4.09,4.09,0,0,0-1.53-.3,4,4,0,0,0-4,3.5H873.75a4,4,0,0,0-4-3.5,4.14,4.14,0,0,0-1.54.3l-21.1-36.55a4,4,0,0,0,0-6.38Zm4.49-3.74a3,3,0,1,1-3-2.95A3,3,0,0,1,872.71,241.7Zm50.21,0a3,3,0,1,1-3-2.95A3,3,0,0,1,922.92,241.7Z"/><path class="cls-4" d="M1050.19,139.24a4,4,0,0,0-4-4,4.09,4.09,0,0,0-1.53.3L1023.51,99a4,4,0,1,0-6.46-3.73H974.84A4,4,0,1,0,968.38,99l-21.1,36.55a4.13,4.13,0,0,0-1.53-.3,4,4,0,1,0,0,8.07,4.13,4.13,0,0,0,1.53-.3l21.1,36.55a4,4,0,1,0,6.46,3.73h42.21a4,4,0,1,0,6.46-3.73L1044.62,143a4.09,4.09,0,0,0,1.53.3A4,4,0,0,0,1050.19,139.24Zm-32.1,43.48a3,3,0,1,1,3,3A3,3,0,0,1,1018.09,182.72Zm-47.24-3a3,3,0,1,1-3,3A3,3,0,0,1,970.85,179.76Zm-25.1-43.47a3,3,0,1,1-3,3A2.95,2.95,0,0,1,945.75,136.29Zm28-40.52a3,3,0,1,1-2.95-3A2.95,2.95,0,0,1,973.8,95.77Zm47.25,3a3,3,0,1,1,3-3A3,3,0,0,1,1021.05,98.72Zm22.63,37.33a4,4,0,0,0,0,6.38L1022.58,179a3.91,3.91,0,0,0-1.53-.31,4.05,4.05,0,0,0-4,3.5H974.84a4,4,0,0,0-4-3.5,4,4,0,0,0-1.54.31l-21.1-36.56a4,4,0,0,0,0-6.38l21.1-36.55a4,4,0,0,0,1.54.31,4,4,0,0,0,4-3.5h42.21a4.05,4.05,0,0,0,4,3.5,3.91,3.91,0,0,0,1.53-.31Zm5.43,3.19a3,3,0,1,1-3-3A3,3,0,0,1,1049.11,139.24Z"/><path class="cls-4" d="M190.86,633.72a4,4,0,0,0,8,.54H241.1a4,4,0,1,0,6.46-3.73L268.67,594a4,4,0,1,0,1.53-7.77,4.14,4.14,0,0,0-1.54.3L247.56,550a4,4,0,1,0-6.46-3.73H198.89a4,4,0,1,0-6.46,3.73l-21.1,36.55a4.18,4.18,0,0,0-1.54-.3,4,4,0,0,0,0,8.07,4.18,4.18,0,0,0,1.54-.3l21.1,36.55A4,4,0,0,0,190.86,633.72Zm-21.07-46.43a3,3,0,1,1-2.95,3A3,3,0,0,1,169.79,587.29Zm28.06-40.52a3,3,0,1,1-3-3A3,3,0,0,1,197.85,546.77Zm47.25,3a3,3,0,1,1,3-3A3,3,0,0,1,245.1,549.73Zm25.1,43.47a3,3,0,1,1,2.95-3A3,3,0,0,1,270.2,593.2ZM246.63,630a4,4,0,0,0-1.53-.31,4,4,0,0,0-4,3.5H198.89a4,4,0,0,0-4-3.5,3.91,3.91,0,0,0-1.53.31l-21.1-36.55a4,4,0,0,0,0-6.38l21.1-36.56a3.91,3.91,0,0,0,1.53.31,4,4,0,0,0,4-3.5H241.1a4,4,0,0,0,4,3.5,4,4,0,0,0,1.53-.31l21.1,36.56a4,4,0,0,0,0,6.38Zm-4.49,3.73a3,3,0,1,1,3,3A3,3,0,0,1,242.14,633.72Zm-50.2,0a3,3,0,1,1,2.95,3A3,3,0,0,1,191.94,633.72Z"/><path class="cls-4" d="M76.37,642.24A4,4,0,0,0,81.93,646L103,682.53a4,4,0,1,0,6.46,3.73h42.21a4,4,0,1,0,6.46-3.73L179.27,646a4.14,4.14,0,0,0,1.54.3,4,4,0,0,0,0-8.07,4.14,4.14,0,0,0-1.54.3L158.17,602a4,4,0,1,0-6.46-3.73H109.5A4,4,0,1,0,103,602L81.93,638.51a4.09,4.09,0,0,0-1.53-.3A4,4,0,0,0,76.37,642.24Zm32.09-43.47a3,3,0,1,1-3-3A3,3,0,0,1,108.46,598.77Zm47.25,3a3,3,0,1,1,2.95-3A3,3,0,0,1,155.71,601.73Zm25.1,43.47a3,3,0,1,1,2.95-3A3,3,0,0,1,180.81,645.2Zm-28.06,40.52a3,3,0,1,1,3,3A3,3,0,0,1,152.75,685.72Zm-47.25-3a3,3,0,1,1-3,3A3,3,0,0,1,105.5,682.76ZM82.87,645.44a4,4,0,0,0,0-6.38L104,602.5a4,4,0,0,0,1.53.31,4,4,0,0,0,4-3.5h42.21a4,4,0,0,0,4,3.5,4,4,0,0,0,1.53-.31l21.1,36.56a4,4,0,0,0,0,6.38L157.24,682a4,4,0,0,0-1.53-.31,4,4,0,0,0-4,3.5H109.5a4,4,0,0,0-4-3.5A3.91,3.91,0,0,0,104,682Zm-5.42-3.2a3,3,0,1,1,3,3A3,3,0,0,1,77.45,642.24Z"/><path class="cls-4" d="M-13.66,590.25a4,4,0,0,0,4,4,4.09,4.09,0,0,0,1.53-.3L13,630.53a4,4,0,1,0,6.46,3.73H61.68a4,4,0,1,0,6.46-3.73L89.25,594a4.09,4.09,0,0,0,1.53.3,4,4,0,1,0,0-8.07,4.09,4.09,0,0,0-1.53.3L68.14,550a4,4,0,1,0-6.46-3.73H19.47A4,4,0,1,0,13,550l-21.1,36.55a4.13,4.13,0,0,0-1.53-.3A4,4,0,0,0-13.66,590.25Zm32.09-43.48a3,3,0,1,1-2.95-3A3,3,0,0,1,18.43,546.77Zm47.25,3a3,3,0,1,1,3-3A3,3,0,0,1,65.68,549.73Zm25.1,43.47a3,3,0,1,1,3-3A3,3,0,0,1,90.78,593.2ZM62.72,633.72a3,3,0,1,1,3,3A3,3,0,0,1,62.72,633.72Zm-47.24-3a3,3,0,1,1-3,3A3,3,0,0,1,15.48,630.76ZM-7.16,593.44a4.05,4.05,0,0,0,1.57-3.19,4,4,0,0,0-1.57-3.19L14,550.5a3.87,3.87,0,0,0,1.53.31,4,4,0,0,0,4-3.5H61.68a4.05,4.05,0,0,0,4,3.5,3.91,3.91,0,0,0,1.53-.31l21.1,36.56a4,4,0,0,0,0,6.38L67.21,630a3.91,3.91,0,0,0-1.53-.31,4.05,4.05,0,0,0-4,3.5H19.47a4,4,0,0,0-4-3.5,4,4,0,0,0-1.54.31Zm-5.42-3.19a3,3,0,0,1,3-3,3,3,0,0,1,2.95,3,3,3,0,0,1-2.95,3A3,3,0,0,1-12.58,590.25Z"/><path class="cls-4" d="M835.59,173.63a4,4,0,0,0-4-4,4.14,4.14,0,0,0-1.54.3l-21.1-36.55a4,4,0,1,0-6.46-3.73H760.25a4,4,0,1,0-6.46,3.73l-21.1,36.55a4.14,4.14,0,0,0-1.54-.3,4,4,0,0,0,0,8.08,4,4,0,0,0,1.54-.31l21.1,36.55a4,4,0,1,0,6.46,3.73h42.21a4,4,0,1,0,6.46-3.73L830,177.36a4,4,0,0,0,1.54.31A4,4,0,0,0,835.59,173.63ZM803.5,217.1a3,3,0,1,1,3,3A3,3,0,0,1,803.5,217.1Zm-47.25-2.95a3,3,0,1,1-3,2.95A3,3,0,0,1,756.25,214.15Zm-25.1-43.48a3,3,0,1,1-2.95,3A3,3,0,0,1,731.15,170.67Zm28.06-40.52a3,3,0,1,1-3-3A3,3,0,0,1,759.21,130.15Zm47.25,3a3,3,0,1,1,2.95-3A3,3,0,0,1,806.46,133.11Zm22.63,37.33a4,4,0,0,0,0,6.38L808,213.37a4.09,4.09,0,0,0-1.53-.3,4,4,0,0,0-4,3.49H760.25a4,4,0,0,0-4-3.49,4.09,4.09,0,0,0-1.53.3l-21.1-36.55a4,4,0,0,0,0-6.38l21.1-36.55a4.09,4.09,0,0,0,1.53.3,4,4,0,0,0,4-3.5h42.21a4,4,0,0,0,4,3.5,4.09,4.09,0,0,0,1.53-.3Zm5.42,3.19a3,3,0,1,1-3-3A2.95,2.95,0,0,1,834.51,173.63Z"/><path class="cls-4" d="M369.8,308.22a4,4,0,0,0-4-4,4.09,4.09,0,0,0-1.53.3l-21.1-36.55a4,4,0,1,0-6.46-3.73H294.46a4,4,0,1,0-6.46,3.73l-21.11,36.55a4.09,4.09,0,0,0-1.53-.3,4,4,0,1,0,0,8.07,4.09,4.09,0,0,0,1.53-.3L288,348.51a4,4,0,1,0,6.46,3.73h42.21a4,4,0,1,0,6.46-3.73L364.23,312a4.09,4.09,0,0,0,1.53.3A4,4,0,0,0,369.8,308.22ZM337.71,351.7a3,3,0,1,1,3,3A3,3,0,0,1,337.71,351.7Zm-47.25-3a3,3,0,1,1-3,3A3,3,0,0,1,290.46,348.74Zm-25.1-43.47a3,3,0,1,1-3,3A3,3,0,0,1,265.36,305.27Zm28.06-40.52a3,3,0,1,1-3-3A3,3,0,0,1,293.42,264.75Zm47.24,3a3,3,0,1,1,3-3A3,3,0,0,1,340.66,267.71ZM363.3,305a4,4,0,0,0,0,6.38L342.2,348a4,4,0,0,0-1.54-.31,4,4,0,0,0-4,3.5H294.46a4.05,4.05,0,0,0-4-3.5,3.91,3.91,0,0,0-1.53.31l-21.1-36.56a4,4,0,0,0,0-6.37l21.1-36.56a3.91,3.91,0,0,0,1.53.31,4.05,4.05,0,0,0,4-3.5h42.21a4,4,0,0,0,4,3.5,4,4,0,0,0,1.54-.31Zm5.42,3.18a3,3,0,1,1-3-3A3,3,0,0,1,368.72,308.22Z"/><path class="cls-4" d="M14.3,451a4,4,0,0,0-4-4,4.09,4.09,0,0,0-1.53.3l-21.11-36.55a4,4,0,0,0,1.58-3.19,4,4,0,0,0-4-4,4,4,0,0,0-4,3.5H-61a4,4,0,0,0-4-3.5,4,4,0,0,0-4,4,4,4,0,0,0,1.57,3.19l-21.1,36.55a4.13,4.13,0,0,0-1.53-.3,4,4,0,0,0-4,4,4,4,0,0,0,4,4,4.13,4.13,0,0,0,1.53-.3l21.1,36.55a4,4,0,0,0-1.57,3.19,4,4,0,0,0,4,4,4,4,0,0,0,4-3.5h42.21a4,4,0,0,0,4,3.5,4,4,0,0,0,4-4,4,4,0,0,0-1.58-3.19L8.73,454.7a4.09,4.09,0,0,0,1.53.3A4,4,0,0,0,14.3,451Zm-32.1,43.48a3,3,0,0,1,3-3,3,3,0,0,1,3,3,3,3,0,0,1-3,3A3,3,0,0,1-17.8,494.44Zm-47.24-3a3,3,0,0,1,3,3,3,3,0,0,1-3,3,3,3,0,0,1-3-3A3,3,0,0,1-65,491.48ZM-90.14,448a3,3,0,0,1,3,2.95,3,3,0,0,1-3,3,3,3,0,0,1-3-3A3,3,0,0,1-90.14,448Zm28.05-40.52a3,3,0,0,1-3,3,3,3,0,0,1-3-3,3,3,0,0,1,3-3A3,3,0,0,1-62.09,407.49Zm47.25,3a3,3,0,0,1-3-3,3,3,0,0,1,3-3,3,3,0,0,1,3,3A3,3,0,0,1-14.84,410.45ZM7.79,447.77a4,4,0,0,0,0,6.39l-21.1,36.55a3.91,3.91,0,0,0-1.53-.31,4,4,0,0,0-4,3.5H-61a4,4,0,0,0-4-3.5,4,4,0,0,0-1.54.31l-21.1-36.55a4.07,4.07,0,0,0,1.57-3.2,4,4,0,0,0-1.57-3.18l21.1-36.56a4,4,0,0,0,1.54.31,4,4,0,0,0,4-3.5h42.21a4,4,0,0,0,4,3.5,3.91,3.91,0,0,0,1.53-.31ZM13.22,451a3,3,0,1,1-3-2.95A3,3,0,0,1,13.22,451Z"/></g></g></svg>