<svg id="Layer_1" data-name="Layer 1" xmlns="http://www.w3.org/2000/svg" viewBox="0 0 30 30"><defs><style>.cls-1{fill:none;stroke:#c14c5e;stroke-miterlimit:10;}.cls-2{fill:#c14c5e;}</style></defs><title>magnify_icon_hvr</title><circle class="cls-1" cx="15" cy="15" r="14.35"/><path class="cls-2" d="M23.21,23.15h0a.43.43,0,0,0,0-.58L19.5,18.85a6.49,6.49,0,1,0-.61.6l3.74,3.7a.35.35,0,0,0,.3.13A.37.37,0,0,0,23.21,23.15Zm-3-8.53a5.57,5.57,0,1,1-5.58-5.56h0a5.57,5.57,0,0,1,5.58,5.56h0Z"/><path class="cls-2" d="M17.65,14.62a.42.42,0,0,0-.42-.42H15.08V12.06a.43.43,0,0,0-.86,0V14.2H12.08a.43.43,0,1,0-.13.85h2.27v2.14a.43.43,0,0,0,.86,0V15.05h2.14a.43.43,0,0,0,.43-.43Z"/></svg>