<svg id="Layer_1" data-name="Layer 1" xmlns="http://www.w3.org/2000/svg" viewBox="0 0 155 39"><defs><style>.cls-1{fill:#fff;}</style></defs><title>NCSES_logo</title><path class="cls-1" d="M31.18,1.2c-2.38,0-3.37,1-3.37,3.32V24.37a48.74,48.74,0,0,0,.37,5h-.11s-1.71-3-3.05-5L8.74,1.2H4v31a1,1,0,0,1-1.14,1.14H.66V37.8H5.89c2.33,0,3.32-1,3.32-3.32V14.63c0-2-.31-5-.31-5H9s1.66,3,3,5L28.33,37.8H33V6.8a1,1,0,0,1,1.14-1.14h9.45A19,19,0,0,1,49.41,1.2Z"/><path class="cls-1" d="M136.72,10.07c0-2.7,2.49-4.85,6.43-4.85,2.9,0,5.65,1.38,5.65,3.27v1.68h4.77v-3c0-4.89-6.54-6.63-10.42-6.63-6.9,0-11.72,4.24-11.72,9.64,0,11.23,17.68,10,17.68,17.6,0,3.32-2.85,5.51-6.27,5.51H129.1v1.14a5,5,0,0,1-1,3.32l14.66,0c7.26,0,11.61-4.74,11.61-10.25C154.34,15.73,136.72,17.36,136.72,10.07Z"/><path class="cls-1" d="M122.88,29.87V32.2a1,1,0,0,1-1.14,1.14H111.07a1,1,0,0,1-1.14-1.14V21.57h12.8V17.12h-12.8V5.66h10.41a1,1,0,0,1,1.14,1.14V9.13h4.72V4.52c0-2.33-1-3.32-3.32-3.32H95.55a7.45,7.45,0,0,1,3.64,4.46h5.55V34.48c0,2.33,1,3.32,3.32,3.32h16.27a4.92,4.92,0,0,0,.56,0c1.92-.15,2.76-1.15,2.76-3.28V29.87Z"/><path class="cls-1" d="M73.86,33.88l-.27-.34H58.7c-7.46,0-13.21-6.37-13.21-14.35,0-7.21,4.35-12.35,10.37-13.53.24,0,.49-.07.73-.11a14,14,0,0,1,2-.15C62.23,5.4,67.41,7,67.41,10v2.07h4.77V8.51c0-5.85-8.81-7.93-13.73-7.93a19.58,19.58,0,0,0-4.9.62,17.76,17.76,0,0,0-7.94,4.46A18.68,18.68,0,0,0,40.1,19.19c0,10.78,7.62,19.23,18.55,19.23H80.14A17.48,17.48,0,0,1,73.86,33.88Z"/><path class="cls-1" d="M97.32,4.87l-.07-.11a5.13,5.13,0,0,0-.38-.57l-.21-.25c-.11-.12-.23-.25-.35-.36a4.73,4.73,0,0,0-.4-.37h0a7.35,7.35,0,0,0-1.08-.75l-.39-.23a12.35,12.35,0,0,0-2.55-1A16.87,16.87,0,0,0,87.53.58c-6.89,0-11.72,4.3-11.72,9.8,0,11.4,17.68,10.21,17.68,17.88,0,3.11-2.43,5.11-5.49,5.4-.26,0-.52,0-.78,0a9.76,9.76,0,0,1-1.73-.16A13.93,13.93,0,0,1,78,29.3L75,33s.18.22.52.56a16.37,16.37,0,0,0,11.6,4.88c.29,0,.56,0,.84,0C94.7,38,98.72,33.38,98.72,28c0-12-17.62-10.37-17.62-17.78,0-2.6,2.24-4.69,5.83-4.9l.6,0a9,9,0,0,1,2.52.36c1.79.54,3.13,1.62,3.13,3v1.71H98v-3a5,5,0,0,0-.27-1.62s0,0,0-.06A5.34,5.34,0,0,0,97.32,4.87Z"/><path class="cls-1" d="M97.25,4.76l.07.11Z"/><path class="cls-1" d="M95.89,3.2a8,8,0,0,0-1.47-1l.39.23A7.35,7.35,0,0,1,95.89,3.2Z"/><path class="cls-1" d="M95.91,3.21a4.73,4.73,0,0,1,.4.37A4.73,4.73,0,0,0,95.91,3.21Z"/><path class="cls-1" d="M97.67,5.64s0,0,0,.06a.06.06,0,0,0,0,0Z"/><path class="cls-1" d="M96.66,3.94l.21.25Z"/><path class="cls-1" d="M88,38.42v0c-.28,0-.55,0-.84,0Z"/></svg>