<svg id="Layer_1" data-name="Layer 1" xmlns="http://www.w3.org/2000/svg" viewBox="0 0 66 42"><defs><style>.cls-1{fill:#fff;}</style></defs><title>NIH_logo</title><path class="cls-1" d="M45.81,11.88V30.21H42.62V21.94h-8.3v8.27H31.13V11.88h3.19v7.29h8.3V11.88ZM27.94,30.21H24.75V11.88h3.19Zm-6.34,0H18.23L9.94,16.73H9.86V30.21h-3V11.88h3.37l8.32,13.5h0V11.88h3ZM57.06,21,45.78.5H4.25A3.76,3.76,0,0,0,.5,4.27V37.72A3.76,3.76,0,0,0,4.25,41.5H45.74Z"/><path class="cls-1" d="M48.57,41.5,59.87,21,48.61.5h2.82A5.24,5.24,0,0,1,55.59,3L65.5,21,55.56,39A5.26,5.26,0,0,1,51.4,41.5Z"/></svg>