<svg id="Layer_1" data-name="Layer 1" xmlns="http://www.w3.org/2000/svg" viewBox="0 0 149 87"><defs><style>.cls-1,.cls-4{fill:#00416b;}.cls-1,.cls-6,.cls-7{fill-rule:evenodd;}.cls-2{fill:#fff;}.cls-3{fill:none;stroke:#00416b;stroke-width:0.79px;}.cls-3,.cls-5{stroke-miterlimit:10;}.cls-5,.cls-7,.cls-8{fill:#b2c6d2;}.cls-5{stroke:#b2c6d2;stroke-width:1.58px;}.cls-6{fill:#4d7a98;}</style></defs><title>SDR_logo</title><path class="cls-1" d="M79.27,29.37S47.33,24.79,34.1,43.75L.44,33.29,76.86.3l71.7,32.53L114.9,43.63s-2.19-3.11-8.63-6.67c0,0,8.39,6.09,9.65,12.87L123.86,75s-6.09-11.71-26.43-10.57c0,0-12-.68-20.81,11A27.12,27.12,0,0,0,53.41,64.08,39.2,39.2,0,0,0,26.18,75.23l8.5-27.34s4.14-9.78,18-15.06C52.72,32.83,63.64,28.35,79.27,29.37Z"/><path class="cls-2" d="M105.6,50.21s-.11-.8-1.83-1.6c0,0-1.26-.81-6.28-.46H25.08s-6.64,0-8.47,6.52c0,0-6.51,24.36,9.72,27.33l79.16-11.78s5.83-1,6.18-9.5c0,0,0-7-3.33-10.4Z"/><path class="cls-3" d="M105.8,50.29A9.25,9.25,0,0,0,102.4,48H25.51a12.57,12.57,0,0,0-5.7,1.83,9,9,0,0,0-2.36,2.89A19.22,19.22,0,0,0,16,57.53a33.53,33.53,0,0,0-.65,8.94A21.52,21.52,0,0,0,18,76.58c.3.52.65,1,1,1.49a10.16,10.16,0,0,0,8.92,3.71L106.52,70c10.64-8.36,1.82-19.79,1.82-19.79L36.17,53.07s9.92,20.15-6.36,28.43"/><line class="cls-3" x1="38.24" y1="72.15" x2="111.09" y2="64.11"/><line class="cls-3" x1="35.34" y1="77.33" x2="109.55" y2="66.91"/><path class="cls-4" d="M105.53,69.45,64.16,75.24l-36,5.87a9.4,9.4,0,0,1-6.29-.93c-5.65-3.6-7-11.73-6.26-17.88.46-3.57,1.64-8.66,4.76-10.8,2.86-2,9.57-1,10.37,3.55h-5c1.47.13,5.38,1.35,7.14,6.72a.14.14,0,0,0,0-.09l-5,.19c-.83-2.13-.86-4.1-3-5.51s-3.69-1.1-5.06.9c-3.12,4.51-1.36,13.81,2,17.76a9.19,9.19,0,0,0,4.7,2.85,12.66,12.66,0,0,0,7,1.13s9.14-6.38,4.17-21.71L35.8,57.2A30.47,30.47,0,0,1,37,68.71a10.72,10.72,0,0,1-3.87,7.75A14.08,14.08,0,0,1,27,77.73c2.36-.11,8.4-1.73,7.41-15.65,0,0-1.82-12.29-9.38-14a8.81,8.81,0,0,0-8.39,6.26c-2.41,7.46-2.4,16.81,1.45,22.33a16,16,0,0,0,3.54,3.85l.37.12a9.88,9.88,0,0,0,5.91,1.16L106.3,70.07c2.22-.9,2.4-2.24,2.4-2.24A7.38,7.38,0,0,1,105.53,69.45Zm-79.18,8s-8.45,0-7-16.27c.25-2.8,4.54-1.33,6-1.15,1.69.21,1.73,1,2,2.66,1.89-.16,3.81-.3,5.69-.45h0s3,14.69-6.69,15.22Z"/><path class="cls-1" d="M91.82,7.1l2.3,1.14s1.28-.62,2.63,1.15l.87,2s-1.63-.28.31,7.75a11.19,11.19,0,0,0,.44,3.2A4.65,4.65,0,0,0,98.52,24a3.85,3.85,0,0,0,.52.38,3.05,3.05,0,0,0,.07,1.5S100.2,29,100.61,30a6,6,0,0,0-.08.94s-.26,4.79-.24,5.17a44,44,0,0,0-1.21,5.32s-.21,6.36.23,7.41c0,0,1.27-4,1.3-4.57a25.78,25.78,0,0,0,0,3.93,22.46,22.46,0,0,0,.77,4.38s.61,2,1.35,3.84a15.91,15.91,0,0,1,1.17,1.88s1.09,2.66,1.69,4.54c0,0,1.16,4.83,1.26,5.28,0,0,.42,4.25.68,5.54a9.74,9.74,0,0,1-.14,1.21s-.84,3.31-.6,4a13.52,13.52,0,0,0,1.42-2.37s.65-2.81.65-2.94l.84,3.18s.52.51.73.51a13.2,13.2,0,0,0,2.32-1,4.47,4.47,0,0,0,1.67-.11,3.16,3.16,0,0,0,.32-1l-.32-1.94,1.62,2.7.56-1.27a2.37,2.37,0,0,1,1.62.54s1.55.73,1.78,1.44a1.74,1.74,0,0,0,0-1.19l-.71-1.27s1,.2,1.15.55a19.06,19.06,0,0,0-1.71-3.83,38,38,0,0,1-3.12-3.1l-2.26-3.19a11.1,11.1,0,0,1-.94-3.57s-.88-6-1.16-6.78c0,0-1.19-5.46-2.66-7A4.74,4.74,0,0,1,108,45.8a4.06,4.06,0,0,1-.16-1.43l1-5.27a72.55,72.55,0,0,0-1-8.94s-1-4.64-1.53-6.22a6,6,0,0,0-1.19-.87s.27-.2-.13-.88c0,0-.2-1.65-.27-2.36,0,0-.63-1.08-1.11-1.75a1.2,1.2,0,0,0-.64-.16,2.58,2.58,0,0,0-.23-1.66A16.39,16.39,0,0,0,101.15,13s-.36-.94-.43-1.23a2.12,2.12,0,0,0-.84-.58L99.29,11c-.23-.07-.36-.69-.42-.89A3.6,3.6,0,0,0,98.28,9,5.49,5.49,0,0,0,91.82,7.1Z"/><path class="cls-5" d="M100,18.17c-.7-.33-1-2.06-1.25-2.76a12.65,12.65,0,0,1-.38-1.83c-.06-.25-.1-.94-.28-1.12l-.33-.32v.65a12.65,12.65,0,0,0,.53,2.86,11.41,11.41,0,0,1,.6,1.6c.09.38.2.75.27,1.12h-.07c-.2.09.27,1.77.32,2,.14.74.45,1.43.57,2.16.08.48-.11,1.49.39,1.76.14.08.77-.11.84,0l.16.33.67,2.95a26.7,26.7,0,0,1-.35,9.76c-.14.47-.27,1-.4,1.41l-.15.53c.33-.59.64-1.19,1-1.77a6.44,6.44,0,0,0,.57-1.72l-.33,2.95a26.87,26.87,0,0,0,0,5.38,17,17,0,0,0,1.05,4.77c.4,1,.84,2,1.25,3l-.68-4c-.22-1.89-.56-3.71-.61-5.58a12,12,0,0,1,0-1.47c.11-1.61.16-3.23.23-4.85a7.22,7.22,0,0,0,0-1.23v-.34c-.2-3.06-.18-6.24-1.36-9.13-.07-.17-.65-2-.7-2l-.45.11-.12-.81-.65-2-.16-.9.16-.08L100.1,19v-.26Z"/><polygon class="cls-5" points="109.57 62.7 107.92 58.43 106.33 55.05 107.27 57.44 108.59 62.03 110.22 69.91 110.56 71.55 110.22 67.95 109.57 62.7"/><polygon class="cls-5" points="114.04 71.32 113.38 69.33 112.4 66.7 112.09 65.8 112.06 66.38 113.04 70.31 113.71 71.32 114.04 71.63 113.94 71.32 114.04 71.32"/><path class="cls-5" d="M106.29,44.65l.32-4.28c.18-2.36.65-4.69,0-7a13.48,13.48,0,0,1-.61-1.86c.24,2.53.33,5,.33,7.55,0,1.15-.08,2.32-.17,3.48a11.49,11.49,0,0,0-.18,3.15c.08.3.35.6.35.92Z"/><path class="cls-6" d="M76.62,79.44s.64.45.72.49A12.82,12.82,0,0,0,87,81.15c.76-.21,1.48-.46,2.2-.71a45.63,45.63,0,0,1,4.65-1.36,29.6,29.6,0,0,1,4.36-.9c2.72-.22,5,1.33,6.84,3.12a24,24,0,0,1,2,2.28L102.6,86.7s-1.93-4-3.46-4.35c0,0-1.23-.7-5,.18-2.9.68-5.55,2.19-8.55,2.34s-5.72-1.66-7.68-3.52A5.09,5.09,0,0,1,76.62,79.44Z"/><path class="cls-7" d="M77.55,49.65a4.13,4.13,0,0,1,1.37.43,4.28,4.28,0,0,1,1.67,1.28,3.12,3.12,0,0,1,.61,1.86,4.6,4.6,0,0,1-.11,1.11c-.08.39-.21.84-.32,1.22-.2.74-.45,1.49-.69,2.21s-.51,1.64-.78,2.44-.43,1.36-.64,2a8,8,0,0,1-.3.95h0a53.76,53.76,0,0,0-2.23,8.18,18.83,18.83,0,0,0-.13,4.5,18,18,0,0,0,.23,1.94,4.06,4.06,0,0,0,.47,1.77,10.26,10.26,0,0,0,2.82,1.38l-.19-.17a2.19,2.19,0,0,1-.16-.28c-1.06-1.94-.42-4,.13-6a38.68,38.68,0,0,1,2.26-5.78c1.17-2.54,2.35-5.07,3.49-7.63a8.42,8.42,0,0,0,.69-2.13,10.94,10.94,0,0,0,0-3.33,9.45,9.45,0,0,0-.62-2.15S83.59,50.06,77.55,49.65Z"/><path class="cls-6" d="M68.05,44.49c.08,0,.91,1.92,1,2.07.46,1,.88,2,1.35,3a4.16,4.16,0,0,0,2.83,2.57,7.43,7.43,0,0,0,3.33-.52c.48-.15,1-.31,1.45-.48a13.09,13.09,0,0,1,1.58-.7A3.4,3.4,0,0,0,78.8,50a8.66,8.66,0,0,0-2-.52,4.73,4.73,0,0,1-2-1,12.64,12.64,0,0,1-2-1.87A6.06,6.06,0,0,1,72,45.3,5.9,5.9,0,0,0,68.05,44.49Z"/><path class="cls-7" d="M74.14,60.23S71.45,47.25,61.46,48c.12,0,.33-.26.42-.33a18.09,18.09,0,0,1,1.51-1.09A21.65,21.65,0,0,1,66.31,45a8,8,0,0,1,1.06-.4,6.66,6.66,0,0,1,4.63.72l-2.77-3.23A1.63,1.63,0,0,0,68,41.8a6.17,6.17,0,0,0-2.63.88c-.4.2-.77.43-1.16.65l-1.1.65c-.35.2-1.08.6-1.09.59l-3.1-.71a1.06,1.06,0,0,1-.35-.09A17.49,17.49,0,0,0,58.16,42a4.82,4.82,0,0,0-1.5-2.89A8.33,8.33,0,0,0,53,38.19a8.9,8.9,0,0,0-2.91.24s2.66.06,3.71,1.92A11.35,11.35,0,0,1,54.59,42a21.72,21.72,0,0,1,.78,2.76,9.3,9.3,0,0,0-1,2.42c.14.94,1.24,1,2,1.1s1.72.33,2.59.49a2.34,2.34,0,0,0,1.68-.22h0s10.28,1.81,8.48,17.8c0,0-.31,6.68-8.15,9.37l8.74-1.25S75.58,70,74.14,60.23Z"/><path class="cls-6" d="M53.72,40.17s-.86-1.58-3.6-1.74a3.7,3.7,0,0,0-1,.66,21.83,21.83,0,0,0-4.33,5.68,27.59,27.59,0,0,0-2,3.3h5.29a11,11,0,0,1,1.07-3S51.26,41.37,53.72,40.17Z"/><path class="cls-4" d="M55.36,44.74h0a4.63,4.63,0,0,1,3.2-1v-.09A3.87,3.87,0,0,0,55.36,44.74Z"/><path class="cls-4" d="M61.77,44.49s-.31.17-.42.25a7.06,7.06,0,0,0-2.46,2.18,2.3,2.3,0,0,0-.38,1.1.8.8,0,0,0,.34.77.75.75,0,0,0,.41.09,3.32,3.32,0,0,0,.63,0c.17-.05.37-.13.55-.2S61.55,48,61.61,48c-.55.1-1.07.39-1.6.44-.73.07-1-.58-.82-1.21A3.18,3.18,0,0,1,60,46a9.19,9.19,0,0,1,.91-.74l.58-.4c.13-.08.46-.37.6-.36Z"/><path class="cls-8" d="M97.75,18.44a7,7,0,0,1,2.13-1.23,4.36,4.36,0,0,1,3.15.35l-.06.36a3.3,3.3,0,0,0-2-.55,4.09,4.09,0,0,0-1.85.47,4.76,4.76,0,0,0-1.27,1Z"/><path class="cls-5" d="M105.2,22.93v-.11a9,9,0,0,0-4.68.56,6.07,6.07,0,0,0-1.65.92l.12.25a7.75,7.75,0,0,1,2.42-1.17,12.12,12.12,0,0,1,3.7-.3C105.18,23.09,105.19,23,105.2,22.93Z"/><path class="cls-8" d="M99.28,11a.42.42,0,0,1-.23-.29,3.13,3.13,0,0,0-1.59.34l.16.37A2.86,2.86,0,0,1,99.28,11Z"/><path class="cls-4" d="M74.05,59.77S75.91,69,69.61,74.51l1.7-.25S76.29,67.76,74.05,59.77Z"/><path class="cls-2" d="M56.19,36.32a6.58,6.58,0,0,1-.67-3.38.5.5,0,0,1,.69-.09c.4,1.13,1.6,3.51,3.78,3.51a2.36,2.36,0,0,0,2.62-2.06,1.51,1.51,0,0,0,0-.3c0-1.26-.6-2.29-2.26-3.22l-1-.53C57.71,29.32,56.24,28,56.24,26c0-2.2,1.64-4.06,4.89-4.06a14.52,14.52,0,0,1,3,.46,9.27,9.27,0,0,1,.47,3,.54.54,0,0,1-.71.07,3.18,3.18,0,0,0-3-2.65,2.26,2.26,0,0,0-2.5,2c0,.12,0,.23,0,.35,0,.93.64,1.93,2.11,2.71l1.37.73a5,5,0,0,1,3,4.38c0,2.53-1.94,4.33-5.16,4.33A6.78,6.78,0,0,1,56.19,36.32Z"/><path class="cls-2" d="M68.54,25.56c0-2.13,0-2.4-1.06-2.53L67,23a.45.45,0,0,1,0-.63c1.6-.13,3.38-.19,5.55-.19a14.63,14.63,0,0,1,5.25.75,6.8,6.8,0,0,1,4.55,6.64,7,7,0,0,1-4,6.4,12.15,12.15,0,0,1-5.45,1c-1.36,0-2.4-.14-3.23-.14s-1.84,0-2.82.07a.47.47,0,0,1,0-.64l.49-.07c1-.13,1.24-.2,1.24-2.56Zm2.58,7.27c0,2.15.15,3.31,2.51,3.31,4,0,5.73-2.8,5.73-6.56,0-4.39-2.55-6.53-6.26-6.53a4,4,0,0,0-1.8.31c-.16.14-.18.6-.18,1.65Z"/><path class="cls-2" d="M86,25.56c0-2.13,0-2.4-1.07-2.51L84.31,23a.45.45,0,0,1,0-.63c1.39-.13,3.28-.19,5.1-.19a9.43,9.43,0,0,1,4.23.75,3.48,3.48,0,0,1,2,3.24A3.83,3.83,0,0,1,93,29.67c-.13.07-.08.25,0,.38,1.78,3,2.89,4.89,3.94,5.75a2.75,2.75,0,0,0,1.53.69.41.41,0,0,1,0,.45,6.5,6.5,0,0,1-1.46.13c-2.14,0-3.29-.87-4.65-2.93-.59-.93-1.22-2.16-1.75-3a1.24,1.24,0,0,0-1.38-.76c-.66,0-.69,0-.69.49v2.84c0,2.36.2,2.43,1.25,2.56l.49.07a.54.54,0,0,1,0,.64c-1,0-2-.07-3-.07s-2,0-3,.07a.43.43,0,0,1,0-.61l0,0,.49-.07c1-.13,1.25-.2,1.25-2.56Zm2.57,3.2c0,.71,0,.76,1.07.76,2.18,0,3.18-1.07,3.18-3.18A3.07,3.07,0,0,0,90,23.06h-.21c-1.15,0-1.18.07-1.18,1.09Z"/></svg>