<svg id="Layer_1" data-name="Layer 1" xmlns="http://www.w3.org/2000/svg" viewBox="0 0 19 11"><title>show_pw_icon</title><path fill="#C14B5F" d="M18.71,5.13c-.16-.22-4.31-5-9.29-5s-9,4.79-9.24,5l0,.13v.51l0,.13c.17.22,4.26,5,9.24,5s9.15-4.79,9.32-5l.13-.13V5.26ZM9.39,10c-4,0-7.57-3.62-8.4-4.53C1.82,4.59,5.38,1,9.39,1S17,4.62,17.8,5.5C17,6.41,13.41,10,9.39,10Z"/><path fill="#C14B5F" d="M6.21,5.47A3.28,3.28,0,1,0,9.48,2.2a2.93,2.93,0,0,0-.59,0,1.6,1.6,0,0,1,.55,1.19A1.57,1.57,0,0,1,7.87,5a1.55,1.55,0,0,1-1.41-.85A2.46,2.46,0,0,0,6.21,5.47Z"/></svg>