<svg id="Layer_1" data-name="Layer 1" xmlns="http://www.w3.org/2000/svg" viewBox="0 0 116 31"><defs><style>.cls-1{fill:#005699;}</style></defs><title>westat_logo</title><path class="cls-1" d="M55.66,25H52L49.4,14.43h0L46.85,25H43.23l-4.1-15.9h3.8l2.44,10.71h0L48,9.05h3.43l2.66,10.71h.05l.14-.69,2.32-10h3.06Z"/><path class="cls-1" d="M63,19.65l0,.58a2.27,2.27,0,0,0,2.27,2.52,2,2,0,0,0,2.09-1.85l3.15.23a5.37,5.37,0,0,1-5.36,4.06,5.58,5.58,0,0,1-5.81-6c0-3.48,2.06-6.28,5.72-6.28A5.36,5.36,0,0,1,69.38,15a7.57,7.57,0,0,1,1.21,4.62Zm4.15-2c-.07-1.28-.48-2.46-2-2.46s-2.08,1.11-2.2,2.46Z"/><path class="cls-1" d="M79.24,16.7a2.13,2.13,0,0,0-2.3-1.57c-.69,0-1.76.18-1.76,1,0,2.2,7.07-.3,7.07,5a3.71,3.71,0,0,1-1.57,3,6.36,6.36,0,0,1-3.67,1c-2.46,0-4.75-.84-5.38-3.48l3-.42c.23,1.21,1.5,1.58,2.59,1.58.65,0,2.07-.23,2.07-1.11s-.7-.93-1.32-1a23.32,23.32,0,0,1-3.5-.7,3.31,3.31,0,0,1-2.32-3.17c0-2.9,2.52-3.94,5-3.94A4.36,4.36,0,0,1,81.76,16Z"/><path class="cls-1" d="M90.74,15.87H88.21v4.68c0,1.55.12,1.9,1.58,1.9.3,0,.74-.05,1.13-.09v2.57a10,10,0,0,1-2.13.26,5.09,5.09,0,0,1-3-.77c-1-.79-1-2.2-1-3.36V15.87H82.88V13.15h2.06l.3-3.45,3-.23v3.68h2.53Z"/><path class="cls-1" d="M99.78,25a6.64,6.64,0,0,1-.16-1.83,4.15,4.15,0,0,1-3.76,2.07c-2.09,0-3.71-1.12-3.71-3.34a3.67,3.67,0,0,1,2.64-3.5,19.21,19.21,0,0,1,4.66-.74v-.28a2.42,2.42,0,0,0-.3-1.56,1.77,1.77,0,0,0-1.39-.55c-1.09,0-2,.55-2,1.71l-3.22-.3c.35-2.85,3.13-3.68,5.61-3.68A6.19,6.19,0,0,1,101.84,14c1.21,1,1.09,2.27,1.09,3.69v5.49a5.75,5.75,0,0,0,.23,1.76Zm-.33-5.63c-1.29.14-3.68.44-3.68,2.16A1.42,1.42,0,0,0,97.27,23a2.05,2.05,0,0,0,1.72-1,3.7,3.7,0,0,0,.46-2.28Z"/><path class="cls-1" d="M112.07,15.87h-2.53v4.68c0,1.55.12,1.9,1.58,1.9.3,0,.74-.05,1.13-.09v2.57a10.07,10.07,0,0,1-2.13.26,5.09,5.09,0,0,1-3-.77c-1-.79-1-2.2-1-3.36V15.87h-1.92V13.15h2.06l.3-3.45,3-.23v3.68h2.53Z"/><path class="cls-1" d="M113.82,9.06a1.69,1.69,0,1,1-1.68,1.69A1.69,1.69,0,0,1,113.82,9.06Zm0,3.07a1.38,1.38,0,1,0-1.38-1.38A1.38,1.38,0,0,0,113.82,12.13Zm-.33-.48h-.38V9.85H114c.11,0,.69,0,.69.53a.49.49,0,0,1-.34.49l.34.78h-.41l-.3-.72h-.44Zm0-1h.4c.13,0,.35,0,.35-.25s-.08-.24-.31-.24h-.44Z"/><polygon class="cls-1" points="33.04 0.35 14.9 25.4 17.92 30.65 35.33 0.35 33.04 0.35"/><polygon class="cls-1" points="28.83 0.35 27.45 0.35 11.92 20.22 22.96 0.35 0.5 0.35 14.9 25.4 28.83 0.35"/></svg>